HIERARCHY
ROOT hip
{
  OFFSET 0 0 0
  CHANNELS 6 Xposition Yposition Zposition Zrotation Yrotation Xrotation
  JOINT abdomen
  {
    OFFSET 0 20.6881 -0.73152
    CHANNELS 3 Zrotation Xrotation Yrotation
    JOINT chest
    {
      OFFSET 0 11.7043 -0.48768
      CHANNELS 3 Zrotation Xrotation Yrotation
      JOINT neck
      {
        OFFSET 0 22.1894 -2.19456
        CHANNELS 3 Zrotation Xrotation Yrotation
        JOINT head
        {
          OFFSET -0.24384 7.07133 1.2192
          CHANNELS 3 Zrotation Xrotation Yrotation
          JOINT leftEye
          {
            OFFSET 4.14528 8.04674 8.04672
            CHANNELS 3 Zrotation Xrotation Yrotation
            End Site
            {
              OFFSET 1 0 0
            }
          }
          JOINT rightEye
          {
            OFFSET -3.6576 8.04674 8.04672
            CHANNELS 3 Zrotation Xrotation Yrotation
            End Site
            {
              OFFSET 1 0 0
            }
          }
        }
      }
      JOINT rCollar
      {
        OFFSET -2.68224 19.2634 -4.8768
        CHANNELS 3 Zrotation Xrotation Yrotation
        JOINT rShldr
        {
          OFFSET -8.77824 -1.95073 1.46304
          CHANNELS 3 Zrotation Xrotation Yrotation
          JOINT rForeArm
          {
            OFFSET -28.1742 -1.7115 0.48768
            CHANNELS 3 Zrotation Xrotation Yrotation
            JOINT rHand
            {
              OFFSET -22.5879 0.773209 7.07136
              CHANNELS 3 Zrotation Xrotation Yrotation
              JOINT rThumb1
              {
                OFFSET -1.2192 -0.487915 3.41376
                CHANNELS 3 Zrotation Xrotation Yrotation
                JOINT rThumb2
                {
                  OFFSET -3.37035 -0.52449 3.41376
                  CHANNELS 3 Zrotation Xrotation Yrotation
                  End Site
                  {
                    OFFSET -1.78271 -1.18214 1.43049
                  }
                }
              }
              JOINT rIndex1
              {
                OFFSET -7.75947 0.938293 5.60832
                CHANNELS 3 Zrotation Xrotation Yrotation
                JOINT rIndex2
                {
                  OFFSET -2.54057 -0.884171 1.56538
                  CHANNELS 3 Zrotation Xrotation Yrotation
                  End Site
                  {
                    OFFSET -1.62519 -0.234802 1.16502
                  }
                }
              }
              JOINT rMid1
              {
                OFFSET -8.24714 1.18213 3.41376
                CHANNELS 3 Zrotation Xrotation Yrotation
                JOINT rMid2
                {
                  OFFSET -3.10165 -0.590103 1.0647
                  CHANNELS 3 Zrotation Xrotation Yrotation
                  End Site
                  {
                    OFFSET -2.48547 -0.328903 0.83742
                  }
                }
              }
              JOINT rRing1
              {
                OFFSET -8.82822 0.546677 1.51678
                CHANNELS 3 Zrotation Xrotation Yrotation
                JOINT rRing2
                {
                  OFFSET -2.60934 -0.819778 -0.0198488
                  CHANNELS 3 Zrotation Xrotation Yrotation
                  End Site
                  {
                    OFFSET -2.33842 -0.294052 0.168128
                  }
                }
              }
              JOINT rPinky1
              {
                OFFSET -8.27202 -0.0477905 -0.4584
                CHANNELS 3 Zrotation Xrotation Yrotation
                JOINT rPinky2
                {
                  OFFSET -1.82734 -0.647385 -0.700984
                  CHANNELS 3 Zrotation Xrotation Yrotation
                  End Site
                  {
                    OFFSET -1.69225 -0.51767 -0.607171
                  }
                }
              }
            }
          }
        }
      }
      JOINT lCollar
      {
        OFFSET 2.68224 19.2634 -4.8768
        CHANNELS 3 Zrotation Xrotation Yrotation
        JOINT lShldr
        {
          OFFSET 8.77824 -1.95073 1.46304
          CHANNELS 3 Zrotation Xrotation Yrotation
          JOINT lForeArm
          {
            OFFSET 28.1742 -1.7115 0.48768
            CHANNELS 3 Zrotation Xrotation Yrotation
            JOINT lHand
            {
              OFFSET 22.5879 0.773209 7.07136
              CHANNELS 3 Zrotation Xrotation Yrotation
              JOINT lThumb1
              {
                OFFSET 1.2192 -0.487915 3.41376
                CHANNELS 3 Zrotation Xrotation Yrotation
                JOINT lThumb2
                {
                  OFFSET 3.37035 -0.52449 3.41376
                  CHANNELS 3 Zrotation Xrotation Yrotation
                  End Site
                  {
                    OFFSET 1.78271 -1.18214 1.43049
                  }
                }
              }
              JOINT lIndex1
              {
                OFFSET 7.75947 0.938293 5.60832
                CHANNELS 3 Zrotation Xrotation Yrotation
                JOINT lIndex2
                {
                  OFFSET 2.54057 -0.884171 1.56538
                  CHANNELS 3 Zrotation Xrotation Yrotation
                  End Site
                  {
                    OFFSET 1.62519 -0.234802 1.16502
                  }
                }
              }
              JOINT lMid1
              {
                OFFSET 8.24714 1.18213 3.41376
                CHANNELS 3 Zrotation Xrotation Yrotation
                JOINT lMid2
                {
                  OFFSET 3.10165 -0.590103 1.0647
                  CHANNELS 3 Zrotation Xrotation Yrotation
                  End Site
                  {
                    OFFSET 2.48547 -0.328903 0.83742
                  }
                }
              }
              JOINT lRing1
              {
                OFFSET 8.82822 0.546677 1.51678
                CHANNELS 3 Zrotation Xrotation Yrotation
                JOINT lRing2
                {
                  OFFSET 2.60934 -0.819778 -0.0198488
                  CHANNELS 3 Zrotation Xrotation Yrotation
                  End Site
                  {
                    OFFSET 2.33842 -0.294052 0.168128
                  }
                }
              }
              JOINT lPinky1
              {
                OFFSET 8.27202 -0.0477905 -0.4584
                CHANNELS 3 Zrotation Xrotation Yrotation
                JOINT lPinky2
                {
                  OFFSET 1.82734 -0.647385 -0.700984
                  CHANNELS 3 Zrotation Xrotation Yrotation
                  End Site
                  {
                    OFFSET 1.69225 -0.51767 -0.607171
                  }
                }
              }
            }
          }
        }
      }
    }
  }
  JOINT rButtock
  {
    OFFSET -8.77824 4.35084 1.2192
    CHANNELS 3 Zrotation Xrotation Yrotation
    JOINT rThigh
    {
      OFFSET 0 -1.70687 -2.19456
      CHANNELS 3 Zrotation Xrotation Yrotation
      JOINT rShin
      {
        OFFSET 0 -36.8199 0.73152
        CHANNELS 3 Zrotation Xrotation Yrotation
        JOINT rFoot
        {
          OFFSET 0.73152 -45.1104 -5.12064
          CHANNELS 3 Zrotation Xrotation Yrotation
          End Site
          {
            OFFSET -1.1221 -3.69964 12.103
          }
        }
      }
    }
  }
  JOINT lButtock
  {
    OFFSET 8.77824 4.35084 1.2192
    CHANNELS 3 Zrotation Xrotation Yrotation
    JOINT lThigh
    {
      OFFSET 0 -1.70687 -2.19456
      CHANNELS 3 Zrotation Xrotation Yrotation
      JOINT lShin
      {
        OFFSET 0 -36.8199 0.73152
        CHANNELS 3 Zrotation Xrotation Yrotation
        JOINT lFoot
        {
          OFFSET -0.73152 -45.1104 -5.12064
          CHANNELS 3 Zrotation Xrotation Yrotation
          End Site
          {
            OFFSET 1.1221 -3.69964 12.103
          }
        }
      }
    }
  }
}
MOTION
Frames:	4
Frame Time:	0.00833333
-15.0896 79.7073 0.68887 -359.058 27.3707 -367.475 -10.6259 2.64964 2.38055 -2.97002 2.66865 0.662404 2.79479 -0.534052 2.59401 -3.7184 15.9477 5.41862 -0.0 0.0 0.0 -0.0 0.0 0.0 1.75016e-14 2.61587e-13 -1.62109e-13 27.238 42.2303 42.7846 -26.7724 -44.5984 92.6431 -0.522588 -20.1 -2.94806 -3.92492e-10 -1.87885e-10 9.31009e-10 -6.93105e-10 -3.30145e-10 1.60142e-09 -3.9249e-10 -1.87881e-10 9.31006e-10 7.73091 5.47488 0.417314 -3.92489e-10 -1.87886e-10 9.31015e-10 2.90554 0.965183 0.102902 -3.92483e-10 -1.87884e-10 9.31007e-10 10.2786 0.731801 0.0259123 -3.925e-10 -1.87887e-10 9.31015e-10 2.22167 -0.733487 -0.20892 1.74855e-14 2.61614e-13 -1.62258e-13 -48.8025 52.186 -39.1006 26.8289 -44.4585 -92.3608 12.3193 -66.3727 18.7397 -1.72173e-09 3.71786e-09 -1.3871e-10 -2.94385e-09 6.25538e-09 -3.28489e-10 -1.72173e-09 3.71785e-09 -1.38698e-10 -7.73091 5.47488 -0.417314 -1.72173e-09 3.71784e-09 -1.38714e-10 -2.90554 0.965183 -0.102902 -1.72174e-09 3.71785e-09 -1.38711e-10 -10.2786 0.731801 -0.0259123 -1.72172e-09 3.71785e-09 -1.3872e-10 -2.22167 -0.733487 0.20892 -2.03217e-16 0.0 -3.88251e-19 0.993783 -14.6169 2.08016 -0.283243 38.1892 0.79307 -5.39491 -14.3284 -15.8569 2.03217e-16 0.0 3.88251e-19 10.4552 -20.1079 8.7188 0.102942 24.6965 -0.156967 -0.0308629 4.50964 21.1133
-14.9715 79.7514 0.550884 -358.596 27.0191 -367.419 -11.0815 2.4889 2.32279 -2.87432 2.64662 0.647725 2.96155 -0.399994 2.73366 -4.14334 15.9158 5.71111 -0.0 0.0 0.0 -0.0 0.0 0.0 -2.35141e-14 2.14898e-13 -1.41241e-13 27.4926 41.9019 42.2994 -26.689 -44.799 93.0514 -0.530339 -20.2399 -2.97042 -2.72515e-10 -8.08145e-11 7.19712e-10 -4.83588e-10 -1.45098e-10 1.23998e-09 -2.72514e-10 -8.08119e-11 7.19706e-10 7.73091 5.47488 0.417314 -2.72512e-10 -8.08157e-11 7.19718e-10 2.90554 0.965183 0.102902 -2.72508e-10 -8.08139e-11 7.19712e-10 10.2786 0.731801 0.0259123 -2.72524e-10 -8.08161e-11 7.1972e-10 2.22167 -0.733487 -0.20892 -2.35262e-14 2.14923e-13 -1.41406e-13 -48.1961 52.2898 -39.7399 26.764 -44.6201 -92.6853 12.1941 -66.2234 18.6029 -1.45376e-09 3.24054e-09 3.78014e-12 -2.49199e-09 5.46314e-09 -6.97331e-11 -1.45375e-09 3.24055e-09 3.79624e-12 -7.73091 5.47488 -0.417314 -1.45375e-09 3.24053e-09 3.77807e-12 -2.90554 0.965183 -0.102902 -1.45376e-09 3.24054e-09 3.77864e-12 -10.2786 0.731801 -0.0259123 -1.45374e-09 3.24054e-09 3.77076e-12 -2.22167 -0.733487 0.20892 -2.03217e-16 0.0 -3.88251e-19 0.577693 -14.5278 2.2115 -0.281621 38.1252 0.791485 -5.25466 -14.147 -15.6094 2.03217e-16 0.0 3.88251e-19 10.2646 -19.8133 8.88041 0.104916 24.7826 -0.170204 0.00428008 4.46296 20.3376
-14.806 79.8126 0.4163 -357.704 26.6769 -367.179 -11.8652 2.3457 2.24621 -2.71933 2.56333 0.624087 3.10335 -0.243178 2.89004 -4.56692 15.9165 6.04794 -0.0 0.0 0.0 -0.0 0.0 0.0 -7.77267e-14 1.07036e-13 -1.36671e-13 27.7291 41.5807 41.8211 -26.6043 -44.9969 93.4568 -0.538279 -20.381 -2.99304 -1.59969e-10 1.45983e-10 3.53403e-10 -2.84511e-10 2.48002e-10 6.11267e-10 -1.59968e-10 1.45983e-10 3.53393e-10 7.73091 5.47488 0.417314 -1.59967e-10 1.45981e-10 3.5341e-10 2.90554 0.965183 0.102902 -1.59964e-10 1.45982e-10 3.53406e-10 10.2786 0.731801 0.0259123 -1.59978e-10 1.45982e-10 3.53415e-10 2.22167 -0.733487 -0.20892 -7.77312e-14 1.07055e-13 -1.36869e-13 -47.6564 52.4106 -40.3316 26.6921 -44.7934 -93.0374 12.0449 -66.0422 18.4396 -1.02884e-09 2.62237e-09 3.26101e-10 -1.7802e-09 4.46619e-09 5.04252e-10 -1.02884e-09 2.62237e-09 3.26123e-10 -7.73091 5.47488 -0.417314 -1.02883e-09 2.62236e-09 3.26102e-10 -2.90554 0.965183 -0.102902 -1.02885e-09 2.62237e-09 3.261e-10 -10.2786 0.731801 -0.0259123 -1.02883e-09 2.62236e-09 3.26094e-10 -2.22167 -0.733487 0.20892 -2.03217e-16 0.0 -3.88251e-19 -0.173084 -14.4363 2.30939 -0.280605 38.113 0.791904 -5.10173 -13.9964 -15.3006 2.03217e-16 0.0 3.88251e-19 9.7416 -19.4194 9.02178 0.106502 24.7807 -0.181988 0.0120874 4.49666 19.5157
-14.6736 79.8867 0.299641 -357.031 26.321 -367.099 -12.6314 2.22513 2.16829 -2.56279 2.46761 0.598885 3.22736 -0.0950216 3.04989 -4.98173 15.9209 6.39462 -0.0 0.0 0.0 -0.0 0.0 0.0 -1.23886e-13 -1.0418e-14 -1.13809e-13 27.9254 41.2319 41.3502 -26.5158 -45.1986 93.8713 -0.547792 -20.5505 -3.02022 -2.64558e-11 3.5243e-10 -5.04718e-11 -4.84364e-11 6.06329e-10 -8.2104e-11 -2.64554e-11 3.52428e-10 -5.04858e-11 7.73091 5.47488 0.417314 -2.64541e-11 3.52428e-10 -5.0465e-11 2.90554 0.965183 0.102902 -2.64525e-11 3.52428e-10 -5.04673e-11 10.2786 0.731801 0.0259123 -2.64649e-11 3.52431e-10 -5.04575e-11 2.22167 -0.733487 -0.20892 -1.23886e-13 -1.04051e-14 -1.14042e-13 -47.1095 52.5566 -40.9578 26.6151 -44.9735 -93.4063 11.8424 -65.7925 18.2177 -4.67269e-10 1.71644e-09 5.96987e-10 -8.3144e-10 2.98167e-09 9.9715e-10 -4.67271e-10 1.71646e-09 5.97013e-10 -7.73091 5.47488 -0.417314 -4.67265e-10 1.71644e-09 5.96991e-10 -2.90554 0.965183 -0.102902 -4.67276e-10 1.71645e-09 5.96986e-10 -10.2786 0.731801 -0.0259123 -4.67269e-10 1.71645e-09 5.96982e-10 -2.22167 -0.733487 0.20892 -2.03217e-16 0.0 -3.88251e-19 -0.892978 -14.3363 2.44045 -0.27976 38.1109 0.792768 -4.96022 -13.8609 -15.0079 2.03217e-16 0.0 3.88251e-19 9.22831 -19.0013 9.14694 0.107731 24.763 -0.192821 0.0170084 4.53358 18.7563
